<svg xmlns="http://www.w3.org/2000/svg" viewBox="0 0 426.667 426.667">
  <g fill="#303c42">
    <path d="M32 202.667H10.667A10.66 10.66 0 0 0 0 213.333 10.66 10.66 0 0 0 10.667 224H32a10.66 10.66 0 0 0 10.667-10.667A10.66 10.66 0 0 0 32 202.667zM416 202.667h-21.333A10.66 10.66 0 0 0 384 213.334a10.66 10.66 0 0 0 10.667 10.667H416a10.66 10.66 0 0 0 10.667-10.667A10.66 10.66 0 0 0 416 202.667zM77.563 334.01L62.48 349.093c-4.167 4.167-4.167 10.917 0 15.083 2.083 2.083 4.813 3.125 7.542 3.125s5.458-1.042 7.542-3.125l15.083-15.083c4.167-4.167 4.167-10.917 0-15.083-4.168-4.166-10.918-4.166-15.084 0zM349.104 62.49l-15.083 15.083c-4.167 4.167-4.167 10.917 0 15.083a10.634 10.634 0 0 0 7.542 3.125c2.729 0 5.458-1.042 7.542-3.125l15.083-15.083c4.167-4.167 4.167-10.917 0-15.083-4.167-4.167-10.917-4.167-15.084 0zM213.333 384a10.66 10.66 0 0 0-10.667 10.667V416a10.66 10.66 0 0 0 10.667 10.667A10.66 10.66 0 0 0 224 416v-21.333A10.66 10.66 0 0 0 213.333 384zM213.333 42.667A10.66 10.66 0 0 0 224 32V10.667A10.66 10.66 0 0 0 213.333 0a10.66 10.66 0 0 0-10.667 10.667V32a10.662 10.662 0 0 0 10.667 10.667zM349.104 334.01c-4.167-4.167-10.917-4.167-15.083 0-4.167 4.167-4.167 10.917 0 15.083l15.083 15.083c2.083 2.083 4.813 3.125 7.542 3.125s5.458-1.042 7.542-3.125c4.167-4.167 4.167-10.917 0-15.083l-15.084-15.083zM77.563 92.656a10.634 10.634 0 0 0 7.542 3.125c2.729 0 5.458-1.042 7.542-3.125 4.167-4.167 4.167-10.917 0-15.083L77.563 62.49c-4.167-4.167-10.917-4.167-15.083 0s-4.167 10.917 0 15.083l15.083 15.083z"/>
    <circle cx="213.333" cy="213.333" r="149.333"/>
  </g>
  <circle cx="213.333" cy="213.333" r="128" fill="#ffca28"/>
  <linearGradient id="a" gradientUnits="userSpaceOnUse" x1="-85.914" y1="595.8" x2="-68.826" y2="587.836" gradientTransform="matrix(21.3333 0 0 -21.3333 1863.889 12838.778)">
    <stop offset="0" stop-color="#fff" stop-opacity=".2"/>
    <stop offset="1" stop-color="#fff" stop-opacity="0"/>
  </linearGradient>
  <path d="M32 202.667H10.667A10.66 10.66 0 0 0 0 213.333 10.66 10.66 0 0 0 10.667 224H32a10.66 10.66 0 0 0 10.667-10.667A10.66 10.66 0 0 0 32 202.667zm384 0h-21.333A10.66 10.66 0 0 0 384 213.334a10.66 10.66 0 0 0 10.667 10.667H416a10.66 10.66 0 0 0 10.667-10.667A10.66 10.66 0 0 0 416 202.667zM77.563 334.01L62.48 349.093c-4.167 4.167-4.167 10.917 0 15.083 2.083 2.083 4.813 3.125 7.542 3.125s5.458-1.042 7.542-3.125l15.083-15.083c4.167-4.167 4.167-10.917 0-15.083-4.168-4.166-10.918-4.166-15.084 0zM349.104 62.49l-15.083 15.083c-4.167 4.167-4.167 10.917 0 15.083a10.634 10.634 0 0 0 7.542 3.125c2.729 0 5.458-1.042 7.542-3.125l15.083-15.083c4.167-4.167 4.167-10.917 0-15.083-4.167-4.167-10.917-4.167-15.084 0zM213.333 384a10.66 10.66 0 0 0-10.667 10.667V416a10.66 10.66 0 0 0 10.667 10.667A10.66 10.66 0 0 0 224 416v-21.333A10.66 10.66 0 0 0 213.333 384zm0-341.333A10.66 10.66 0 0 0 224 32V10.667A10.66 10.66 0 0 0 213.333 0a10.66 10.66 0 0 0-10.667 10.667V32a10.662 10.662 0 0 0 10.667 10.667zM349.104 334.01c-4.167-4.167-10.917-4.167-15.083 0-4.167 4.167-4.167 10.917 0 15.083l15.083 15.083c2.083 2.083 4.813 3.125 7.542 3.125s5.458-1.042 7.542-3.125c4.167-4.167 4.167-10.917 0-15.083l-15.084-15.083zM77.563 92.656a10.634 10.634 0 0 0 7.542 3.125c2.729 0 5.458-1.042 7.542-3.125 4.167-4.167 4.167-10.917 0-15.083L77.563 62.49c-4.167-4.167-10.917-4.167-15.083 0s-4.167 10.917 0 15.083l15.083 15.083zM213.333 64C130.99 64 64 130.99 64 213.333s66.99 149.333 149.333 149.333 149.333-66.99 149.333-149.333S295.677 64 213.333 64z" fill="url(#a)"/>
</svg>
