<svg xmlns="http://www.w3.org/2000/svg" viewBox="0 0 512 512">
  <path d="M394.667 192c-.764 0-1.518.172-2.283.188-25.634-64.092-87.832-106.855-157.717-106.855-88.733 0-161.798 67.512-169.565 154.888C27.368 253.164 0 288.599 0 330.667c0 52.938 43.063 96 96 96h298.667c64.698 0 117.333-52.635 117.333-117.333S459.365 192 394.667 192z" fill="#303c42"/>
  <path d="M394.667 405.333H96c-41.167 0-74.667-33.5-74.667-74.667S54.833 256 96 256a10.66 10.66 0 0 0 10.667-10.667A10.66 10.66 0 0 0 96 234.666c-3.094 0-6.016.625-9.035.913 9.742-73.219 72.289-128.913 147.702-128.913 59.223 0 112.049 35.141 135.69 88.258-16.503 3.552-32.367 10.339-46.055 20.513-4.729 3.521-5.708 10.198-2.198 14.927 3.5 4.698 10.167 5.688 14.927 2.198 16.677-12.396 37.146-19.229 57.635-19.229 52.938 0 96 43.063 96 96s-43.062 96-95.999 96z" fill="#64b5f6"/>
  <path d="M437.471 223.862c6.514 12.945 10.529 27.35 10.529 42.805 0 52.938-43.063 96-96 96H53.333c-9.475 0-18.465-1.952-26.814-5.186C37.339 385.4 64.309 405.333 96 405.333h298.667c52.938 0 96-43.063 96-96 0-37.483-21.799-69.672-53.196-85.471z" opacity=".1"/>
  <path d="M370.357 194.924c-.07-.158-.171-.294-.241-.452-1.095.471-2.206.892-3.288 1.396 1.182-.29 2.339-.687 3.529-.944z" opacity=".2" fill="#fff"/>
  <linearGradient id="a" gradientUnits="userSpaceOnUse" x1="-44.288" y1="637.151" x2="-24.113" y2="627.743" gradientTransform="matrix(21.3333 0 0 -21.3333 996.333 13791.667)">
    <stop offset="0" stop-color="#fff" stop-opacity=".2"/>
    <stop offset="1" stop-color="#fff" stop-opacity="0"/>
  </linearGradient>
  <path d="M394.667 192c-.764 0-1.518.172-2.283.188-25.634-64.092-87.832-106.855-157.717-106.855-88.733 0-161.798 67.512-169.565 154.888C27.368 253.164 0 288.599 0 330.667c0 52.938 43.063 96 96 96h298.667c64.698 0 117.333-52.635 117.333-117.333S459.365 192 394.667 192z" fill="url(#a)"/>
</svg>
