<svg xmlns="http://www.w3.org/2000/svg" viewBox="0 0 512 512">
  <path d="M355.125 419.125l-32.082 32.082c-4.172-1.996-8.784-3.207-13.71-3.207-17.646 0-32 14.354-32 32s14.354 32 32 32 32-14.354 32-32c0-4.926-1.211-9.538-3.207-13.71l32.082-32.082c4.167-4.167 4.167-10.917 0-15.083-4.166-4.167-10.916-4.167-15.083 0z" fill="#303c42"/>
  <circle cx="309.333" cy="480" r="10.667" fill="#bbdefb"/>
  <path d="M472.458 387.125l-42.749 42.749c-4.172-1.996-8.784-3.207-13.71-3.207-17.646 0-32 14.354-32 32s14.354 32 32 32 32-14.354 32-32c0-4.926-1.211-9.538-3.207-13.71l42.749-42.749c4.167-4.167 4.167-10.917 0-15.083-4.166-4.167-10.916-4.167-15.083 0z" fill="#303c42"/>
  <circle cx="416" cy="458.667" r="10.667" fill="#bbdefb"/>
  <path d="M163.125 419.125l-32.082 32.082c-4.172-1.996-8.784-3.207-13.71-3.207-17.646 0-32 14.354-32 32s14.354 32 32 32 32-14.354 32-32c0-4.926-1.211-9.538-3.207-13.71l32.082-32.082c4.167-4.167 4.167-10.917 0-15.083-4.166-4.167-10.916-4.167-15.083 0z" fill="#303c42"/>
  <circle cx="117.333" cy="480" r="10.667" fill="#bbdefb"/>
  <path d="M397.844 298.667h7.49C464.146 298.667 512 250.813 512 192S464.146 85.333 405.333 85.333c-8.275 0-16.366 1.224-24.289 3.074C357.124 35.29 303.995 0 245.333 0 168.098 0 104.276 58.389 97.044 134.022c-31.755 12.44-54.378 43.202-54.378 79.311 0 4.918.717 9.997 1.783 15.283C17.802 245.694 0 275.4 0 309.333c0 45.066 31.323 82.708 73.264 92.986L45.71 429.874c-4.172-1.996-8.784-3.207-13.71-3.207-17.646 0-32 14.354-32 32s14.354 32 32 32 32-14.354 32-32c0-4.926-1.211-9.538-3.207-13.71l39.624-39.624H262.25l-24.54 24.54c-4.172-1.996-8.784-3.207-13.71-3.207-17.646 0-32 14.354-32 32s14.354 32 32 32 32-14.354 32-32c0-4.926-1.211-9.538-3.207-13.71l39.624-39.624h38.25c41.167 0 74.667-33.5 74.667-74.667-.001-11.493-2.829-22.261-7.49-31.998z" fill="#303c42"/>
  <g fill="#bbdefb">
    <circle cx="224" cy="458.667" r="10.667"/>
    <circle cx="32" cy="458.667" r="10.667"/>
  </g>
  <path d="M64 213.333c0-35.292 28.708-64 64-64 5.896 0 10.667-4.771 10.667-10.667S133.896 128 128 128c-3.083 0-6.005.59-9.005.91 9.375-61.255 62.594-107.577 126.339-107.577 49.551 0 94.48 29.395 115.409 73.835-5.151 2.376-10.16 5.092-14.919 8.301-4.885 3.292-6.177 9.917-2.885 14.802 3.302 4.896 9.927 6.177 14.802 2.885 14.073-9.479 30.531-14.49 47.594-14.49 47.052 0 85.333 38.281 85.333 85.333s-38.281 85.333-85.333 85.333h-22.577c-6.128-5.986-13.318-10.837-21.201-14.448-7.246-64.201-61.595-113.552-126.889-113.552-47.432 0-90.46 26.492-112.599 67.947-8.466-2.4-17.188-3.947-26.068-3.947-11.099 0-21.598 2.268-31.523 5.749-.219-1.939-.478-3.892-.478-5.748z" fill="#64b5f6"/>
  <path d="M432.818 111.611C442.348 125.382 448 142.023 448 160c0 47.052-38.281 85.333-85.333 85.333h-4.766c1.486 5.75 2.973 11.509 3.655 17.552 7.883 3.611 15.073 8.462 21.201 14.448h22.577c47.052 0 85.333-38.281 85.333-85.333 0-37.383-24.319-68.879-57.849-80.389z" opacity=".1"/>
  <path d="M330.667 384H96c-41.167 0-74.667-33.5-74.667-74.667s33.5-74.667 74.667-74.667c17.156 0 33.281 5.656 46.646 16.354 4.635 3.719 11.333 2.948 14.99-1.656 3.688-4.594 2.948-11.313-1.656-14.99-4.385-3.514-9.083-6.578-13.987-9.25 18.788-33.302 53.979-54.458 92.674-54.458 51.454 0 94.456 36.908 104.116 86.154-2.702-.297-5.337-.82-8.116-.82A10.66 10.66 0 0 0 320 266.667a10.66 10.66 0 0 0 10.667 10.667c29.406 0 53.333 23.927 53.333 53.333S360.073 384 330.667 384z" fill="#64b5f6"/>
  <linearGradient id="a" gradientUnits="userSpaceOnUse" x1="-44.705" y1="637.361" x2="-23.82" y2="627.622" gradientTransform="matrix(21.3333 0 0 -21.3333 996.333 13791.667)">
    <stop offset="0" stop-color="#fff" stop-opacity=".2"/>
    <stop offset="1" stop-color="#fff" stop-opacity="0"/>
  </linearGradient>
  <path d="M355.125 419.125l-32.082 32.082c-4.172-1.996-8.784-3.207-13.71-3.207-17.646 0-32 14.354-32 32s14.354 32 32 32 32-14.354 32-32c0-4.926-1.211-9.538-3.207-13.71l32.082-32.082c4.167-4.167 4.167-10.917 0-15.083-4.166-4.167-10.916-4.167-15.083 0zm117.333-32l-42.749 42.749c-4.172-1.996-8.784-3.207-13.71-3.207-17.646 0-32 14.354-32 32s14.354 32 32 32 32-14.354 32-32c0-4.926-1.211-9.538-3.207-13.71l42.749-42.749c4.167-4.167 4.167-10.917 0-15.083-4.166-4.167-10.916-4.167-15.083 0zm-309.333 32l-32.082 32.082c-4.172-1.996-8.784-3.207-13.71-3.207-17.646 0-32 14.354-32 32s14.354 32 32 32 32-14.354 32-32c0-4.926-1.211-9.538-3.207-13.71l32.082-32.082c4.167-4.167 4.167-10.917 0-15.083-4.166-4.167-10.916-4.167-15.083 0zm234.719-120.458h7.49C464.146 298.667 512 250.813 512 192S464.146 85.333 405.333 85.333c-8.275 0-16.366 1.224-24.289 3.074C357.124 35.29 303.995 0 245.333 0 168.098 0 104.276 58.389 97.044 134.022c-31.755 12.44-54.378 43.202-54.378 79.311 0 4.918.717 9.997 1.783 15.283C17.802 245.694 0 275.4 0 309.333c0 45.066 31.323 82.708 73.264 92.986L45.71 429.874c-4.172-1.996-8.784-3.207-13.71-3.207-17.646 0-32 14.354-32 32s14.354 32 32 32 32-14.354 32-32c0-4.926-1.211-9.538-3.207-13.71l39.624-39.624H262.25l-24.54 24.54c-4.172-1.996-8.784-3.207-13.71-3.207-17.646 0-32 14.354-32 32s14.354 32 32 32 32-14.354 32-32c0-4.926-1.211-9.538-3.207-13.71l39.624-39.624h38.25c41.167 0 74.667-33.5 74.667-74.667-.001-11.493-2.829-22.261-7.49-31.998z" fill="url(#a)"/>
  <path d="M361.348 287.184c.819 3.708 1.319 7.533 1.319 11.483 0 29.406-23.927 53.333-53.333 53.333H74.667c-18.865 0-35.919-7.264-49.078-18.848C35.595 362.605 63.21 384 96 384h234.667C360.073 384 384 360.073 384 330.667c0-17.968-8.995-33.814-22.652-43.483z" opacity=".1"/>
</svg>
