<svg xmlns="http://www.w3.org/2000/svg" viewBox="0 0 512 512">
  <path d="M372.5 28.229c-4.104-2.094-9.146-1.344-12.417 1.948a10.68 10.68 0 0 0-1.958 12.406C375.292 76.094 384 112.01 384 149.333 384 278.729 278.729 384 149.333 384c-37.333 0-73.25-8.708-106.771-25.875a10.604 10.604 0 0 0-12.396 1.948 10.68 10.68 0 0 0-1.958 12.406C72.313 458.542 159.604 512 256 512c141.167 0 256-114.844 256-256 0-96.396-53.458-183.677-139.5-227.771z" fill="#303c42"/>
  <path d="M256 490.667c-77.438 0-148.479-37.646-192.063-100.073 27.375 9.792 55.979 14.74 85.396 14.74 141.167 0 256-114.844 256-256 0-29.406-4.938-58-14.729-85.385C453.021 107.542 490.667 178.563 490.667 256c0 129.396-105.271 234.667-234.667 234.667z" fill="#fff4d4"/>
  <path d="M426.458 95.292c20.576 35.177 32.271 75.566 32.271 118.094 0 129.396-105.271 234.667-234.667 234.667-55.854 0-108.206-19.823-149.501-54.165-3.542-1.094-7.121-2.04-10.624-3.293C107.521 453.021 178.563 490.667 256 490.667c129.396 0 234.667-105.271 234.667-234.667 0-61.074-23.692-117.924-64.209-160.708z" opacity=".1"/>
  <path d="M117.333 106.667c41.167 0 74.667 33.5 74.667 74.667 0 5.896 4.771 10.667 10.667 10.667s10.667-4.771 10.667-10.667c0-41.167 33.5-74.667 74.667-74.667A10.66 10.66 0 0 0 298.668 96a10.66 10.66 0 0 0-10.667-10.667c-41.167 0-74.667-33.5-74.667-74.667C213.333 4.771 208.563 0 202.667 0S192 4.771 192 10.667c0 41.167-33.5 74.667-74.667 74.667a10.66 10.66 0 0 0-10.667 10.667 10.662 10.662 0 0 0 10.667 10.666z" fill="#303c42"/>
  <path d="M202.667 54.625c9.167 17.708 23.667 32.219 41.375 41.375-17.708 9.156-32.208 23.667-41.375 41.375C193.5 119.667 179 105.156 161.292 96 179 86.844 193.5 72.333 202.667 54.625z" fill="#ffca28"/>
  <path d="M64 309.333A10.66 10.66 0 0 0 74.667 320a10.66 10.66 0 0 0 10.667-10.667c0-29.406 23.917-53.333 53.333-53.333a10.66 10.66 0 0 0 10.667-10.667 10.66 10.66 0 0 0-10.667-10.667c-29.417 0-53.333-23.927-53.333-53.333a10.66 10.66 0 0 0-10.667-10.667A10.66 10.66 0 0 0 64 181.333c0 29.406-23.917 53.333-53.333 53.333A10.662 10.662 0 0 0 0 245.333 10.66 10.66 0 0 0 10.667 256C40.083 256 64 279.927 64 309.333z" fill="#303c42"/>
  <path d="M74.667 219.76c6.313 10.458 15.104 19.271 25.583 25.573-10.479 6.302-19.271 15.115-25.583 25.573-6.313-10.458-15.104-19.271-25.583-25.573 10.479-6.302 19.27-15.114 25.583-25.573z" fill="#ffca28"/>
  <linearGradient id="a" gradientUnits="userSpaceOnUse" x1="-44.798" y1="639.181" x2="-23.832" y2="629.404" gradientTransform="matrix(21.3333 0 0 -21.3333 996.333 13791.667)">
    <stop offset="0" stop-color="#fff" stop-opacity=".2"/>
    <stop offset="1" stop-color="#fff" stop-opacity="0"/>
  </linearGradient>
  <path d="M372.5 28.229c-4.104-2.094-9.146-1.344-12.417 1.948a10.68 10.68 0 0 0-1.958 12.406C375.292 76.094 384 112.01 384 149.333 384 278.729 278.729 384 149.333 384c-37.333 0-73.25-8.708-106.771-25.875a10.604 10.604 0 0 0-12.396 1.948 10.68 10.68 0 0 0-1.958 12.406C72.313 458.542 159.604 512 256 512c141.167 0 256-114.844 256-256 0-96.396-53.458-183.677-139.5-227.771zm-255.167 78.438c41.167 0 74.667 33.5 74.667 74.667 0 5.896 4.771 10.667 10.667 10.667s10.667-4.771 10.667-10.667c0-41.167 33.5-74.667 74.667-74.667A10.66 10.66 0 0 0 298.668 96a10.66 10.66 0 0 0-10.667-10.667c-41.167 0-74.667-33.5-74.667-74.667C213.333 4.771 208.563 0 202.667 0S192 4.771 192 10.667c0 41.167-33.5 74.667-74.667 74.667a10.66 10.66 0 0 0-10.667 10.667 10.662 10.662 0 0 0 10.667 10.666zM64 309.333A10.66 10.66 0 0 0 74.667 320a10.66 10.66 0 0 0 10.667-10.667c0-29.406 23.917-53.333 53.333-53.333a10.66 10.66 0 0 0 10.667-10.667 10.66 10.66 0 0 0-10.667-10.667c-29.417 0-53.333-23.927-53.333-53.333a10.66 10.66 0 0 0-10.667-10.667A10.66 10.66 0 0 0 64 181.333c0 29.406-23.917 53.333-53.333 53.333A10.662 10.662 0 0 0 0 245.333 10.66 10.66 0 0 0 10.667 256C40.083 256 64 279.927 64 309.333z" fill="url(#a)"/>
</svg>
