<svg xmlns="http://www.w3.org/2000/svg" viewBox="0 0 512 512">
  <g fill="#303c42">
    <path d="M258.083 416c-2.938-5.125-9.479-6.833-14.563-3.906l-30.188 17.428v-24.189h117.333c41.167 0 74.667-33.5 74.667-74.667 0-11.495-2.828-22.263-7.49-32h7.49C464.146 298.667 512 250.813 512 192S464.146 85.333 405.333 85.333c-8.275 0-16.366 1.224-24.289 3.074C357.124 35.29 303.995 0 245.333 0 168.098 0 104.276 58.389 97.044 134.022c-31.755 12.44-54.378 43.202-54.378 79.311 0 4.918.717 9.997 1.783 15.283C17.802 245.694 0 275.4 0 309.333c0 52.938 43.063 96 96 96h96v24.189l-30.188-17.428c-5.104-2.927-11.646-1.208-14.563 3.906-2.958 5.104-1.208 11.625 3.896 14.573L181.331 448l-30.185 17.427c-5.104 2.948-6.854 9.469-3.896 14.573 1.958 3.427 5.563 5.333 9.229 5.333 1.813 0 3.646-.458 5.333-1.427L192 466.478v34.855c0 5.896 4.771 10.667 10.667 10.667s10.667-4.771 10.667-10.667v-34.855l30.188 17.428a10.672 10.672 0 0 0 5.333 1.427c3.667 0 7.271-1.906 9.229-5.333 2.958-5.104 1.208-11.625-3.896-14.573L224.003 448l30.185-17.427c5.104-2.948 6.854-9.469 3.895-14.573z"/>
    <path d="M492.75 394.667c-2.938-5.135-9.5-6.854-14.563-3.906L448 408.189v-34.855c0-5.896-4.771-10.667-10.667-10.667s-10.667 4.771-10.667 10.667v34.855l-30.188-17.428c-5.083-2.917-11.625-1.219-14.563 3.906-2.958 5.104-1.208 11.625 3.896 14.573l30.185 17.427-30.185 17.427c-5.104 2.948-6.854 9.469-3.896 14.573 1.958 3.427 5.563 5.333 9.229 5.333 1.813 0 3.646-.458 5.333-1.427l30.188-17.428V480c0 5.896 4.771 10.667 10.667 10.667S448 485.896 448 480v-34.855l30.188 17.428a10.672 10.672 0 0 0 5.333 1.427c3.667 0 7.271-1.906 9.229-5.333 2.958-5.104 1.208-11.625-3.896-14.573l-30.185-17.427 30.185-17.427c5.104-2.948 6.854-9.469 3.896-14.573zM111.604 448c-2.938-5.135-9.458-6.844-14.563-3.906l-11.708 6.76v-13.521a10.66 10.66 0 0 0-10.667-10.667 10.66 10.66 0 0 0-10.667 10.667v13.521l-11.708-6.76c-5.104-2.906-11.646-1.219-14.563 3.906-2.958 5.104-1.208 11.625 3.896 14.573l11.707 6.76-11.707 6.76c-5.104 2.948-6.854 9.469-3.896 14.573 1.958 3.427 5.563 5.333 9.229 5.333 1.813 0 3.646-.458 5.333-1.427L64 487.813v13.521A10.66 10.66 0 0 0 74.667 512a10.66 10.66 0 0 0 10.667-10.667v-13.521l11.708 6.76a10.672 10.672 0 0 0 5.333 1.427c3.667 0 7.271-1.906 9.229-5.333 2.958-5.104 1.208-11.625-3.896-14.573l-11.707-6.76 11.707-6.76c5.105-2.948 6.855-9.469 3.896-14.573zM367.604 448c-2.938-5.135-9.479-6.844-14.563-3.906l-11.708 6.76v-13.521a10.66 10.66 0 0 0-10.667-10.667 10.66 10.66 0 0 0-10.667 10.667v13.521l-11.708-6.76c-5.083-2.906-11.625-1.219-14.563 3.906-2.958 5.104-1.208 11.625 3.896 14.573l11.707 6.76-11.707 6.76c-5.104 2.948-6.854 9.469-3.896 14.573 1.958 3.427 5.563 5.333 9.229 5.333 1.813 0 3.646-.458 5.333-1.427l11.708-6.76v13.521A10.66 10.66 0 0 0 330.665 512a10.66 10.66 0 0 0 10.667-10.667v-13.521l11.708 6.76a10.672 10.672 0 0 0 5.333 1.427c3.667 0 7.271-1.906 9.229-5.333 2.958-5.104 1.208-11.625-3.896-14.573l-11.707-6.76 11.707-6.76c5.107-2.948 6.857-9.469 3.898-14.573z"/>
  </g>
  <g fill="#64b5f6">
    <path d="M64 213.333c0-35.292 28.708-64 64-64 5.896 0 10.667-4.771 10.667-10.667S133.896 128 128 128c-3.083 0-6.005.59-9.005.91 9.375-61.255 62.594-107.577 126.339-107.577 49.551 0 94.48 29.395 115.409 73.835-5.151 2.376-10.16 5.092-14.919 8.301-4.885 3.292-6.177 9.917-2.885 14.802 3.302 4.896 9.927 6.177 14.802 2.885 14.073-9.479 30.531-14.49 47.594-14.49 47.052 0 85.333 38.281 85.333 85.333s-38.281 85.333-85.333 85.333h-22.577c-6.128-5.986-13.318-10.837-21.201-14.448-7.246-64.201-61.595-113.552-126.889-113.552-47.432 0-90.46 26.492-112.599 67.947-8.466-2.4-17.188-3.947-26.068-3.947-11.099 0-21.598 2.268-31.523 5.749-.219-1.939-.478-3.892-.478-5.748z"/>
    <path d="M330.667 384H96c-41.167 0-74.667-33.5-74.667-74.667s33.5-74.667 74.667-74.667c17.156 0 33.281 5.656 46.646 16.354 4.635 3.719 11.333 2.948 14.99-1.656 3.688-4.594 2.948-11.313-1.656-14.99-4.385-3.514-9.083-6.578-13.987-9.25 18.788-33.302 53.979-54.458 92.674-54.458 51.454 0 94.456 36.908 104.116 86.154-2.702-.297-5.337-.82-8.116-.82A10.66 10.66 0 0 0 320 266.667a10.66 10.66 0 0 0 10.667 10.667c29.406 0 53.333 23.927 53.333 53.333S360.073 384 330.667 384z"/>
  </g>
  <path d="M432.818 111.611C442.348 125.382 448 142.023 448 160c0 47.052-38.281 85.333-85.333 85.333h-4.766c1.486 5.75 2.973 11.509 3.655 17.552 7.883 3.611 15.073 8.462 21.201 14.448h22.577c47.052 0 85.333-38.281 85.333-85.333 0-37.383-24.319-68.879-57.849-80.389zM361.348 287.184c.819 3.708 1.319 7.533 1.319 11.483 0 29.406-23.927 53.333-53.333 53.333H74.667c-18.865 0-35.919-7.264-49.078-18.848C35.595 362.605 63.21 384 96 384h234.667C360.073 384 384 360.073 384 330.667c0-17.968-8.995-33.814-22.652-43.483z" opacity=".1"/>
  <linearGradient id="a" gradientUnits="userSpaceOnUse" x1="-44.699" y1="637.375" x2="-22.624" y2="627.085" gradientTransform="matrix(21.3333 0 0 -21.3333 996.333 13791.667)">
    <stop offset="0" stop-color="#fff" stop-opacity=".2"/>
    <stop offset="1" stop-color="#fff" stop-opacity="0"/>
  </linearGradient>
  <path d="M258.083 416c-2.938-5.125-9.479-6.833-14.563-3.906l-30.188 17.428v-24.189h117.333c41.167 0 74.667-33.5 74.667-74.667 0-11.495-2.828-22.263-7.49-32h7.49C464.146 298.667 512 250.813 512 192S464.146 85.333 405.333 85.333c-8.275 0-16.366 1.224-24.289 3.074C357.124 35.29 303.995 0 245.333 0 168.098 0 104.276 58.389 97.044 134.022c-31.755 12.44-54.378 43.202-54.378 79.311 0 4.918.717 9.997 1.783 15.283C17.802 245.694 0 275.4 0 309.333c0 52.938 43.063 96 96 96h96v24.189l-30.188-17.428c-5.104-2.927-11.646-1.208-14.563 3.906-2.958 5.104-1.208 11.625 3.896 14.573L181.331 448l-30.185 17.427c-5.104 2.948-6.854 9.469-3.896 14.573 1.958 3.427 5.563 5.333 9.229 5.333 1.813 0 3.646-.458 5.333-1.427L192 466.478v34.855c0 5.896 4.771 10.667 10.667 10.667s10.667-4.771 10.667-10.667v-34.855l30.188 17.428a10.672 10.672 0 0 0 5.333 1.427c3.667 0 7.271-1.906 9.229-5.333 2.958-5.104 1.208-11.625-3.896-14.573L224.003 448l30.185-17.427c5.104-2.948 6.854-9.469 3.895-14.573zm234.667-21.333c-2.938-5.135-9.5-6.854-14.563-3.906L448 408.189v-34.855c0-5.896-4.771-10.667-10.667-10.667s-10.667 4.771-10.667 10.667v34.855l-30.188-17.428c-5.083-2.917-11.625-1.219-14.563 3.906-2.958 5.104-1.208 11.625 3.896 14.573l30.185 17.427-30.185 17.427c-5.104 2.948-6.854 9.469-3.896 14.573 1.958 3.427 5.563 5.333 9.229 5.333 1.813 0 3.646-.458 5.333-1.427l30.188-17.428V480c0 5.896 4.771 10.667 10.667 10.667S448 485.896 448 480v-34.855l30.188 17.428a10.672 10.672 0 0 0 5.333 1.427c3.667 0 7.271-1.906 9.229-5.333 2.958-5.104 1.208-11.625-3.896-14.573l-30.185-17.427 30.185-17.427c5.104-2.948 6.854-9.469 3.896-14.573zM111.604 448c-2.938-5.135-9.458-6.844-14.563-3.906l-11.708 6.76v-13.521a10.66 10.66 0 0 0-10.667-10.667 10.66 10.66 0 0 0-10.667 10.667v13.521l-11.708-6.76c-5.104-2.906-11.646-1.219-14.563 3.906-2.958 5.104-1.208 11.625 3.896 14.573l11.707 6.76-11.707 6.76c-5.104 2.948-6.854 9.469-3.896 14.573 1.958 3.427 5.563 5.333 9.229 5.333 1.813 0 3.646-.458 5.333-1.427L64 487.813v13.521A10.66 10.66 0 0 0 74.667 512a10.66 10.66 0 0 0 10.667-10.667v-13.521l11.708 6.76a10.672 10.672 0 0 0 5.333 1.427c3.667 0 7.271-1.906 9.229-5.333 2.958-5.104 1.208-11.625-3.896-14.573l-11.707-6.76 11.707-6.76c5.105-2.948 6.855-9.469 3.896-14.573zm256 0c-2.938-5.135-9.479-6.844-14.563-3.906l-11.708 6.76v-13.521a10.66 10.66 0 0 0-10.667-10.667 10.66 10.66 0 0 0-10.667 10.667v13.521l-11.708-6.76c-5.083-2.906-11.625-1.219-14.563 3.906-2.958 5.104-1.208 11.625 3.896 14.573l11.707 6.76-11.707 6.76c-5.104 2.948-6.854 9.469-3.896 14.573 1.958 3.427 5.563 5.333 9.229 5.333 1.813 0 3.646-.458 5.333-1.427l11.708-6.76v13.521A10.66 10.66 0 0 0 330.665 512a10.66 10.66 0 0 0 10.667-10.667v-13.521l11.708 6.76a10.672 10.672 0 0 0 5.333 1.427c3.667 0 7.271-1.906 9.229-5.333 2.958-5.104 1.208-11.625-3.896-14.573l-11.707-6.76 11.707-6.76c5.107-2.948 6.857-9.469 3.898-14.573z" fill="url(#a)"/>
</svg>
