<svg xmlns="http://www.w3.org/2000/svg" viewBox="0 0 512 512">
  <path d="M58.063 427.771a10.564 10.564 0 0 0-11.208 1.094L13.667 454.23C4.979 460.427 0 469.802 0 480c0 17.646 14.354 32 32 32s32-14.354 32-32v-42.667c0-4.062-2.312-7.76-5.937-9.562z" fill="#303c42"/>
  <path d="M42.667 480c0 5.885-4.792 10.667-10.667 10.667S21.333 485.885 21.333 480c0-4.417 3-7.188 4.792-8.448.125-.083.25-.167.354-.26l16.188-12.375V480z" fill="#bbdefb"/>
  <path d="M271.396 427.771a10.564 10.564 0 0 0-11.208 1.094L227 454.229c-8.688 6.198-13.667 15.573-13.667 25.771 0 17.646 14.354 32 32 32s32-14.354 32-32v-42.667c0-4.062-2.312-7.76-5.937-9.562z" fill="#303c42"/>
  <path d="M256 480c0 5.885-4.792 10.667-10.667 10.667s-10.667-4.781-10.667-10.667c0-4.417 3-7.188 4.792-8.448.125-.083.25-.167.354-.26L256 458.917V480z" fill="#bbdefb"/>
  <path d="M64 213.333c0-35.292 28.708-64 64-64 5.896 0 10.667-4.771 10.667-10.667S133.896 128 128 128c-3.083 0-6.005.59-9.005.91 9.375-61.255 62.594-107.577 126.339-107.577 49.551 0 94.48 29.395 115.409 73.835-5.151 2.376-10.16 5.092-14.919 8.301-4.885 3.292-6.177 9.917-2.885 14.802 3.302 4.896 9.927 6.177 14.802 2.885 14.073-9.479 30.531-14.49 47.594-14.49 47.052 0 85.333 38.281 85.333 85.333s-38.281 85.333-85.333 85.333h-22.577c-6.128-5.986-13.318-10.837-21.201-14.448-7.246-64.201-61.595-113.552-126.889-113.552-47.432 0-90.46 26.492-112.599 67.947-8.466-2.4-17.188-3.947-26.068-3.947-11.099 0-21.598 2.268-31.523 5.749-.219-1.939-.478-3.892-.478-5.748z" fill="#64b5f6"/>
  <path d="M330.667 384H96c-41.167 0-74.667-33.5-74.667-74.667s33.5-74.667 74.667-74.667c17.156 0 33.281 5.656 46.646 16.354 4.635 3.719 11.333 2.948 14.99-1.656 3.688-4.594 2.948-11.313-1.656-14.99-4.385-3.514-9.083-6.578-13.987-9.25 18.788-33.302 53.979-54.458 92.674-54.458 51.454 0 94.456 36.908 104.116 86.154-2.702-.297-5.337-.82-8.116-.82A10.66 10.66 0 0 0 320 266.667a10.66 10.66 0 0 0 10.667 10.667c29.406 0 53.333 23.927 53.333 53.333S360.073 384 330.667 384z" fill="#64b5f6"/>
  <path d="M347.693 280.376c15.31 9.853 25.641 27.428 25.641 47.624 0 30.876-23.927 56-53.333 56h10.667C360.073 384 384 360.073 384 330.667c0-23.42-15.275-43.141-36.307-50.291z" opacity=".1"/>
  <path d="M32 309.333c0-39.52 30.965-71.645 69.855-74.18-1.956-.151-3.87-.487-5.855-.487-41.167 0-74.667 33.5-74.667 74.667S54.833 384 96 384h10.667C65.5 384 32 350.5 32 309.333z" opacity=".2" fill="#fff"/>
  <path d="M405.333 106.667c-2.534 0-5.018.335-7.52.553 44.464 2.88 79.865 39.6 79.865 84.78 0 45.275-35.548 82.068-80.145 84.809.09.184.221.34.31.525h7.49c47.052 0 85.333-38.281 85.333-85.333s-38.281-85.334-85.333-85.334z" opacity=".1"/>
  <path d="M245.333 181.333c26.91 0 51.353 10.259 70.078 26.935-19.482-23.025-48.432-37.602-80.745-37.602-38.695 0-73.887 21.156-92.674 54.458 4.318 2.353 8.391 5.145 12.316 8.146 19.128-31.787 53.355-51.937 91.025-51.937z" opacity=".2" fill="#fff"/>
  <path d="M405.333 85.333c-8.275 0-16.366 1.224-24.289 3.074C357.124 35.29 303.995 0 245.333 0 168.098 0 104.276 58.389 97.044 134.022c-31.755 12.44-54.378 43.202-54.378 79.311 0 4.918.717 9.997 1.783 15.283C17.802 245.694 0 275.4 0 309.333c0 52.938 43.063 96 96 96h234.667c41.167 0 74.667-33.5 74.667-74.667 0-11.495-2.828-22.263-7.49-32h7.49C464.146 298.667 512 250.813 512 192S464.146 85.333 405.333 85.333z" fill="#303c42"/>
  <path d="M330.667 384H96c-41.167 0-74.667-33.5-74.667-74.667s33.5-74.667 74.667-74.667c17.156 0 33.281 5.656 46.646 16.354 4.635 3.719 11.333 2.948 14.99-1.656 3.688-4.594 2.948-11.313-1.656-14.99-4.385-3.514-9.083-6.578-13.987-9.25 18.788-33.302 53.979-54.458 92.674-54.458 51.454 0 94.456 36.908 104.116 86.154-2.702-.297-5.337-.82-8.116-.82A10.66 10.66 0 0 0 320 266.667a10.66 10.66 0 0 0 10.667 10.667c29.406 0 53.333 23.927 53.333 53.333S360.073 384 330.667 384z" fill="#64b5f6"/>
  <path d="M132.299 128.935C145.939 73.135 196.073 32 256 32c32.173 0 62.267 12.536 85.238 33.393-23.801-27.299-58.522-44.06-95.905-44.06-63.745 0-116.964 46.322-126.339 107.577 3-.32 5.922-.91 9.005-.91 1.539 0 2.981.352 4.3.935z" opacity=".2" fill="#fff"/>
  <path d="M64 213.333c0-35.292 28.708-64 64-64 5.896 0 10.667-4.771 10.667-10.667S133.896 128 128 128c-3.083 0-6.005.59-9.005.91 9.375-61.255 62.594-107.577 126.339-107.577 49.551 0 94.48 29.395 115.409 73.835-5.151 2.376-10.16 5.092-14.919 8.301-4.885 3.292-6.177 9.917-2.885 14.802 3.302 4.896 9.927 6.177 14.802 2.885 14.073-9.479 30.531-14.49 47.594-14.49 47.052 0 85.333 38.281 85.333 85.333s-38.281 85.333-85.333 85.333h-22.577c-6.128-5.986-13.318-10.837-21.201-14.448-7.246-64.201-61.595-113.552-126.889-113.552-47.432 0-90.46 26.492-112.599 67.947-8.466-2.4-17.188-3.947-26.068-3.947-11.099 0-21.598 2.268-31.523 5.749-.219-1.939-.478-3.892-.478-5.748z" fill="#64b5f6"/>
  <path d="M463.396 406.438c-3.667-1.813-8-1.396-11.208 1.094l-33.167 25.375c-8.708 6.177-13.688 15.552-13.688 25.76 0 17.646 14.354 32 32 32s32-14.354 32-32V416c0-4.062-2.312-7.76-5.937-9.562z" fill="#303c42"/>
  <path d="M361.348 287.184c.819 3.708 1.319 7.533 1.319 11.483 0 29.406-23.927 53.333-53.333 53.333H74.667c-18.865 0-35.919-7.264-49.078-18.848C35.595 362.605 63.21 384 96 384h234.667C360.073 384 384 360.073 384 330.667c0-17.968-8.995-33.814-22.652-43.483z" opacity=".1"/>
  <path d="M448 458.667c0 5.885-4.792 10.667-10.667 10.667s-10.667-4.781-10.667-10.667c0-4.417 3-7.177 4.792-8.427.125-.094.229-.177.354-.271L448 437.594v21.073z" fill="#bbdefb"/>
  <g fill="#303c42">
    <path d="M96 512c-1.375 0-2.75-.26-4.083-.813a10.658 10.658 0 0 1-6.375-11.948l32-160a10.664 10.664 0 0 1 5.771-7.49 10.7 10.7 0 0 1 9.458.042l28.979 14.49 8.979-80.792a10.704 10.704 0 0 1 4.854-7.813 10.602 10.602 0 0 1 9.125-1.125l64 21.333c5.5 1.823 8.521 7.708 6.813 13.25l-42.667 138.667c-.917 3-3.104 5.438-6 6.667-2.875 1.26-6.167 1.125-8.958-.26l-34.25-17.125-58.771 88.167A10.653 10.653 0 0 1 96 512zM330.667 469.333c-17.646 0-32-14.354-32-32 0-10.198 4.979-19.573 13.667-25.771l33.188-25.365a10.635 10.635 0 0 1 11.208-1.094 10.687 10.687 0 0 1 5.938 9.563v42.667c-.001 17.646-14.355 32-32.001 32z"/>
  </g>
  <path d="M341.333 416.25l-16.188 12.375c-.104.094-.229.177-.354.26-1.792 1.26-4.792 4.031-4.792 8.448 0 5.885 4.792 10.667 10.667 10.667s10.667-4.781 10.667-10.667V416.25z" fill="#bbdefb"/>
  <path d="M318.666 420.156h.209-.209z" fill="#303c42"/>
  <path d="M432.818 111.611C442.348 125.382 448 142.023 448 160c0 47.052-38.281 85.333-85.333 85.333h-4.766c1.486 5.75 2.973 11.509 3.655 17.552 7.883 3.611 15.073 8.462 21.201 14.448h22.577c47.052 0 85.333-38.281 85.333-85.333 0-37.383-24.319-68.879-57.849-80.389z" opacity=".1"/>
  <path d="M135.729 357.115l-18.688 93.438 34.094-51.135c2.99-4.469 8.833-6.042 13.646-3.625l31.406 15.708 35.896-116.677-41.594-13.865-9.208 82.885a10.683 10.683 0 0 1-5.51 8.198 10.715 10.715 0 0 1-9.865.167l-30.177-15.094z" fill="#ffca28"/>
  <linearGradient id="a" gradientUnits="userSpaceOnUse" x1="-44.897" y1="636.951" x2="-23.6" y2="627.018" gradientTransform="matrix(21.3333 0 0 -21.3333 996.333 13791.667)">
    <stop offset="0" stop-color="#fff" stop-opacity=".2"/>
    <stop offset="1" stop-color="#fff" stop-opacity="0"/>
  </linearGradient>
  <path d="M271.396 427.771a10.564 10.564 0 0 0-11.208 1.094L227 454.229c-8.688 6.198-13.667 15.573-13.667 25.771 0 17.646 14.354 32 32 32s32-14.354 32-32v-42.667c0-4.062-2.312-7.76-5.937-9.562zm-213.333 0a10.564 10.564 0 0 0-11.208 1.094L13.667 454.23C4.979 460.427 0 469.802 0 480c0 17.646 14.354 32 32 32s32-14.354 32-32v-42.667c0-4.062-2.312-7.76-5.937-9.562zm347.27-342.438c-8.275 0-16.366 1.224-24.289 3.074C357.124 35.29 303.995 0 245.333 0 168.098 0 104.276 58.389 97.044 134.022c-31.755 12.44-54.378 43.202-54.378 79.311 0 4.918.717 9.997 1.783 15.283C17.802 245.694 0 275.4 0 309.333c0 52.938 43.063 96 96 96h8.323L85.542 499.24A10.658 10.658 0 0 0 96 512c3.479 0 6.854-1.708 8.875-4.75l58.771-88.167 34.25 17.125c2.792 1.385 6.083 1.521 8.958.26a10.596 10.596 0 0 0 6-6.667l7.529-24.469h100.1l-8.15 6.229c-8.688 6.198-13.667 15.573-13.667 25.771 0 17.646 14.354 32 32 32s32-14.354 32-32v-39.49c25.134-12.033 42.667-37.505 42.667-67.177 0-11.495-2.828-22.263-7.49-32h7.49C464.146 298.667 512 250.813 512 192S464.146 85.333 405.333 85.333zm58.063 321.105c-3.667-1.813-8-1.396-11.208 1.094l-33.167 25.375c-8.708 6.177-13.688 15.552-13.688 25.76 0 17.646 14.354 32 32 32s32-14.354 32-32V416c0-4.062-2.312-7.76-5.937-9.562z" fill="url(#a)"/>
</svg>
